<?xml version="1.0" encoding="utf-8"?>
<!-- Generator: Adobe Illustrator 19.0.0, SVG Export Plug-In . SVG Version: 6.00 Build 0)  -->
<svg version="1.1" id="Layer_1" xmlns="http://www.w3.org/2000/svg" xmlns:xlink="http://www.w3.org/1999/xlink" x="0px" y="0px"
	 viewBox="0 0 246.1 224.2" style="enable-background:new 0 0 246.1 224.2;" xml:space="preserve">
<style type="text/css">
	.st0{fill:#FF0000;}
</style>
<g id="XMLID_3_">
	<path id="XMLID_102_" d="M147.1,164.8c0,3.9,0,6.5,0,9.6c3.3,0,6.2,0,10,0c-8.8,15.2-17.2,29.7-25.9,44.8c-2-3.4-3.7-6-5.1-8.7
		c-1.6-3-2.8-5.4-7.3-5c-4,0.4-5.2-3.8-5.2-7.2c0-3.2-1.3-4.2-4.2-4.9c-18.9-5.2-37.7-10.5-56.5-16c-2-0.6-5.3-2.3-5.2-3.4
		c0.1-3.1,1.4-6.4,2.9-9.2c0.4-0.7,3.4-0.6,4.9-0.2c18.9,5.2,37.7,10.5,56.6,16c3.3,1,5.7,1.1,8-2.2c2-2.9,4.9-4.4,9.1-2.9
		C134.4,177.2,141.1,173,147.1,164.8z"/>
	<path id="XMLID_101_" d="M93,36.1c0.4,4.1,0.8,8.2,1.2,12.9C78.1,49,63,49,47,49c1,2.1,1.5,3.4,2.2,4.6
		C59.5,71.4,69.7,89.3,80.2,107c2.8,4.7,5,9.1,2.3,14.5l0.2-0.2c-0.6,1.3-1.3,2.6-2.4,4.7c3.6-0.5,6.4-1,9.4-1.4
		c4.5,5.2,4.5,5.2-3.7,16.5C66,106.6,46.2,72.2,25.8,37c2.7,0,4.3,0,5.9,0c19.1,0,38.3,0.1,57.4,0.1C90.4,37.1,91.7,36.4,93,36.1
		C93,36.1,93,36.1,93,36.1z"/>
	<path id="XMLID_85_" d="M105.5,175.3c5.4-1.8,2-6.1,3.5-9c3.3,2.9,6.6,5.8,10,8.7C114.1,179.5,113.6,179.6,105.5,175.3z"/>
	<g id="XMLID_104_">
		<path id="XMLID_105_" d="M17.5,149.2l0,4.5l0.1,11.9v0.9H6.2l0.1-13.8l-0.1-11.5h19.7c0.9,0,1.4,0,1.5,0.1
			c0.3,0.1,0.4,0.3,0.4,0.6c0,0.4-0.3,0.6-0.8,0.6h-0.1l-9.3-0.1l-0.1,5.8l2,0L26,148l1.4,0c0.5,0,0.9,0,1,0.1
			c0.2,0.1,0.3,0.3,0.3,0.5c0,0.5-0.4,0.7-1.2,0.7l-1.5,0L17.5,149.2z"/>
		<path id="XMLID_107_" d="M47.7,162.3c1.2,0.8,2.5,1.5,3.8,2.1c1.4,0.6,2.9,1,4.4,1.3c0.4,0.1,0.6,0.3,0.6,0.6
			c0,0.4-0.3,0.6-0.9,0.6c-1.3,0-3.1-0.6-5.5-1.7c-2-1-4.2-2.4-6.7-4.4v0.8l0,3.2v1.8H32.3v-0.8l0-6.1l0.1-7.2l0-11.2h7.5
			c3.3,0,5.9,0.1,7.6,0.3s3.2,0.5,4.4,1c2,0.8,3.5,2.2,4.6,4c1.1,1.7,1.6,3.6,1.6,5.5c0,2-0.6,3.9-1.8,5.7
			C54.3,160.5,51.5,162.1,47.7,162.3z M46,161.1l0.9,0c2.5,0,4.7-0.7,6.5-2.1c1.1-0.9,2-2,2.6-3.3c0.6-1.2,0.8-2.5,0.8-3.8
			c0-2.2-0.7-4.1-2.1-5.8c-1.1-1.3-2.4-2.3-4-2.8c-1.6-0.5-3.9-0.8-6.8-0.9l-0.2,12.4v3.4l0,0.9C44.3,159.8,45.1,160.5,46,161.1z"/>
		<path id="XMLID_110_" d="M74.7,140.3c2,0,3.8,0.4,5.7,1.2c2.7,1.2,4.7,3.1,6.1,5.7c1.1,2,1.7,4.3,1.7,6.7c0,1.9-0.4,3.8-1.3,5.6
			c-1.3,2.7-3.3,4.7-6,6.1c-2,1-4.1,1.5-6.2,1.5c-2.3,0-4.5-0.6-6.5-1.7c-2.7-1.5-4.7-3.7-5.8-6.5c-0.7-1.7-1.1-3.4-1.1-5.3
			c0-2.3,0.6-4.4,1.7-6.5c1.4-2.5,3.4-4.4,6.1-5.7C70.7,140.8,72.6,140.4,74.7,140.3z M73.2,141.6l-0.1,12.1l0.1,10l0,2.3
			c0.4,0.1,0.8,0.1,1.2,0.1c2.7,0,5.2-0.8,7.3-2.3c2-1.4,3.4-3.2,4.3-5.3c0.6-1.5,0.9-3.1,0.9-4.7c0-2.2-0.5-4.2-1.6-6
			c-1.3-2.3-3.1-4-5.4-5c-1.7-0.8-3.6-1.2-5.5-1.2C74.1,141.5,73.6,141.5,73.2,141.6z"/>
		<path id="XMLID_113_" d="M115.2,153.4v-3.1l0-4.9l0-2.2l0-1.4c0-0.7,0.2-1,0.7-1c0.3,0,0.5,0.1,0.6,0.2c0.1,0.2,0.2,0.4,0.2,0.9
			v0.3c0,0.3,0,0.7,0,1.3l-0.1,6.3l-0.1,5.7l0,6l0.1,6.1c-2.5-1.6-6.3-3.8-11.2-6.6c-4.9-2.8-8.9-5-11.9-6.6l0,0.9l0.2,9.6l0,1.3
			c0,0.5-0.2,0.8-0.7,0.8c-0.5,0-0.8-0.3-0.8-1l0-1.3l0-2.1l0.1-9.5L92,140.1C97.1,143.2,104.8,147.6,115.2,153.4z"/>
		<path id="XMLID_115_" d="M165.2,149.2c0,0.6,0,1.3,0,2.1v1.1l0.1,12.8l6.3-0.1l4.5,0c0.7,0,1.1,0.2,1.1,0.7c0,0.4-0.2,0.6-0.6,0.6
			c-0.1,0-0.6,0-1.5,0H154l0-1l0-6.2l0.1-6.6l-0.1-11.5h19.7c0.9,0,1.4,0,1.5,0.1c0.3,0.1,0.4,0.3,0.4,0.6c0,0.4-0.3,0.6-0.8,0.6
			h-0.1l-9.3-0.1l-0.1,5.8l2,0l6.5-0.1l1.4,0c0.5,0,0.9,0,1,0.1s0.3,0.3,0.3,0.5c0,0.5-0.4,0.7-1.2,0.7l-1.5,0L165.2,149.2z"/>
		<path id="XMLID_117_" d="M203.4,153.4v-3.1l0-4.9l0-2.2l0-1.4c0-0.7,0.2-1,0.7-1c0.3,0,0.5,0.1,0.6,0.2c0.1,0.2,0.2,0.4,0.2,0.9
			v0.3c0,0.3,0,0.7,0,1.3l-0.1,6.3l-0.1,5.7l0,6l0.1,6.1c-2.5-1.6-6.3-3.8-11.2-6.6s-8.9-5-11.9-6.6l0,0.9l0.2,9.6l0,1.3
			c0,0.5-0.2,0.8-0.7,0.8c-0.5,0-0.8-0.3-0.8-1l0-1.3l0-2.1l0.1-9.5l-0.1-12.8C185.3,143.2,193,147.6,203.4,153.4z"/>
		<path id="XMLID_119_" d="M209.9,141.1h9.8c2.5,0,4.5,0.1,5.8,0.4c3.2,0.6,5.7,2.3,7.7,5.1c1.5,2.2,2.3,4.6,2.3,7.2
			c0,2.7-0.8,5.1-2.4,7.3c-1.9,2.7-4.4,4.3-7.5,5c-0.8,0.2-1.5,0.3-2.1,0.3c-0.6,0-2,0.1-4.1,0.1h-9.4l0.1-12.3L209.9,141.1z
			 M221.2,142.3l-0.1,14.9l0.1,8c1.7,0,2.8-0.1,3.6-0.2c0.7-0.1,1.6-0.4,2.5-0.8c2.2-1,4-2.5,5.2-4.6c1.1-1.8,1.7-3.8,1.7-5.9
			c0-2.3-0.6-4.4-1.9-6.3c-2.3-3.4-5.7-5.1-10.3-5.1L221.2,142.3z"/>
	</g>
	<g id="XMLID_4_">
		<path id="XMLID_6_" d="M124.3,129.2c-7.5,0-14.4,0-21.9,0c4.6-10.6,11.5-18.5,20.1-25.9c-1.3,6.4-2.4,12-3.5,17.7
			c0.3,0.1,0.6,0.2,1,0.3c1-2.6,2.1-5.2,3.1-7.8c0.3,0,0.6,0,0.9,0c0,4.1,0,8.1,0,12.5c3.4,0.1,6.4,1.7,6.7-3.2
			c0.1-0.9,2.4-1.5,3.7-2.3c4.7-4.6,4.8-5.5,1-10c-3-1-6-1.9-9.2-2.9c3.6-6.5-4-9-5.8-14.9c-3.7,5.1-7.9,5.9-12.4,4.1
			c-1.4-0.6-2.3-2.6-3.1-3.5c2.3-1.8,5.2-3.1,5.1-4.1c-0.5-5.5-5.7-3.2-10.3-4.7c3.4-1.6,5.6-2.6,9-4.2c-4.1-0.5-7.1-0.9-10.2-1.3
			c0-0.4,0-0.8,0-1.1c2.1-0.6,4.3-1.2,7-1.9c-5-2.8-11.5-0.2-15.9-5.3c3-0.2,5.2-0.4,7-0.5c0.2-1.8,0.3-2.9,0.4-4.1
			c2.9,0.7,5.8,1.4,9.1,2.2c3.4-6.4,7.2-13.6,11-20.8c-3-2.3-3-2.3-11.2,2.3c0.8,0.4,1.6,0.7,1.6,0.8c-0.2,1.1-0.3,2.7-1,3.1
			c-3.1,1.8-3.5,7.7-8.6,5.9c-2.1-0.8-4.3-2.9-5-4.9c-0.6-1.8,0.7-4.3,1.4-7.2c0.7,1.5,1.1,2.2,1.5,3.1c0.8-0.7,1.5-1.3,2.2-2
			c2.9-2.5,5.9-4.7,5-9.5c-0.9-4.7,1.6-7.8,5.5-10.5c-3.4,1.9-6.9,3.8-10.4,5.6c-1.7,0.9-3.6,1.3-5.4,2c0,0,0,0,0,0
			c-0.8-2-1.7-3.9-3-7c1.6,1,2.3,1.4,3,1.9c0.5-1.7,1-3.3,1.9-6.3c0.5,2.1,0.6,3,0.7,3.1c8.8-6,17.8-12.1,27.2-18.5
			c0.1,0.2-0.4-0.7-1.3-2.1c1.7,0.2,3,0.4,4.5,0.6c-0.6-1.8-1.1-3.2-1.3-3.7c8.9,0.5,18,1,27,1.5c1,0.1,2,0,3,0
			c4.4-0.1,7.8,1.8,9.7,5.7c1.5,3.1,0.1,5.9-4.5,10c1.3,4,2.8,7.8,3.7,11.8c0.7,3.3,2.3,4.1,5.5,4c20-0.1,40-0.1,60-0.1
			c2.1,0,4.2,0,7.5,0c-18.9,32.8-37.3,64.5-55.7,96.3c-3.7-1.6-7.2-3.1-10.8-4.6c0.7-1.6,1.3-3.3,2-5.1l-0.1,0.1
			c3.2,0.8,6.5,1.6,9.8,2.4c0.2-1.1,0.4-1.4,0.2-1.6c-4.1-7.2-2.8-13.4,1.6-20.5c11-17.8,21.1-36.1,32.1-55c-3,0-5.4,0-7.8,0
			c-12.3,0-24.6,0-37,0c-7.3,0-7.3,0-9.4,8c1.5-0.2,2.9-0.3,4.3-0.5c0.2,0.3,0.4,0.5,0.6,0.8c-1.5,0.9-3,1.8-4.3,2.7
			c1.7,2.9,2.9,5,4.1,7.1c-0.4,0.5-0.8,0.9-1.2,1.4c5.4,0,10.9,0,16.3,0c-11.5,5-18.6,13.4-21,25.8c-2.3,11.6-0.2,22.8,3.8,34.5
			c-11,0-21.5,0-32.6,0"/>
		<path id="XMLID_5_" d="M128.4,105.8c0,0-4.8,1.6-5.8,12.5v9.2c0,0,2.9-0.8,4.6,0c1.7,0.8,8.8,0.4,9.3,0c0.5-0.4,6.3-8.5,6.3-9.5
			c0-1-2.5-8.8-2.5-8.8l-7.6-4.7L128.4,105.8z"/>
	</g>
	<g id="XMLID_90_">
		<path id="XMLID_91_" class="st0" d="M88.2,108.2l-0.4-1c0.1-0.2,0.2-0.4,0.3-0.6c0.1-0.2,0.2-0.4,0.3-0.6c0.1-0.1,0.3-0.3,0.5-0.3
			c0.2-0.1,0.5-0.1,0.9-0.1c0.1,0,0.4,0,0.7-0.1c0.3,0,0.5-0.1,0.6-0.1c0.1,0,0.3,0.1,0.6,0.2c0.2,0.1,0.4,0.2,0.5,0.2
			c0.1-0.1,0.3-0.1,0.4-0.3c0.2-0.1,0.4-0.3,0.6-0.5c0.2-0.2,0.4-0.3,0.6-0.4s0.4-0.2,0.6-0.2c0.3,0.1,0.5,0.1,0.7,0.2
			c0.1,0,0.2,0.1,0.2,0.1c0,0.1,0.1,0.1,0.1,0.2c0,0.1,0,0.2-0.1,0.3c-0.1,0.2-0.2,0.4-0.4,0.7c-0.2,0.3-0.3,0.6-0.4,0.8
			s-0.2,0.4-0.2,0.5c-0.2,0.2-0.4,0.4-0.6,0.6c-0.1,0.2-0.2,0.4-0.2,0.5c0,0.2,0.1,0.5,0.3,0.9c0.2,0.4,0.5,0.9,0.8,1.5
			c0.5,0.8,1,1.7,1.6,2.6c0.5,1,1,1.9,1.5,2.8c0.5,0.9,1.1,1.8,1.6,2.6c0.6,0.9,1.1,1.5,1.5,2c0.4,0.4,0.7,0.6,0.9,0.6
			c0.2,0,0.3-0.1,0.3-0.2c0.1-0.1,0.1-0.3,0.1-0.6c0-0.1,0-0.2,0.1-0.4s0.1-0.3,0.2-0.5c0.1-0.3,0.3-0.6,0.4-0.9
			c0.2-0.5,0.3-1,0.4-1.4s0.3-0.7,0.3-1c0.1-0.2,0.1-0.6,0.2-1.2s0.2-1.4,0.2-2.4c0-0.1,0-0.2,0.1-0.4c0.1-0.2,0.1-0.4,0.2-0.6
			c0.1-0.2,0.1-0.4,0.1-0.6c0-0.2,0-0.3,0-0.5c0-0.2,0-0.6-0.1-1c-0.1-0.5-0.1-0.8-0.1-1c0.2-0.6,0.5-1.3,0.7-1.9
			c0.2-0.5,0.3-1,0.5-1.3s0.3-0.6,0.4-0.8c0.3-0.4,0.6-0.7,0.9-1c0.4-0.3,0.8-0.5,1.2-0.7h0.2c0.2,0,0.3,0,0.3,0.1
			c0.1,0,0.1,0.1,0.1,0.2c-0.1,0.2-0.2,0.4-0.2,0.5c0,0.2,0.1,0.4,0.1,0.6c0,0.3-0.1,0.5-0.2,0.6c0,0.1-0.1,0.3-0.1,0.5s0,0.5,0,0.8
			c0,0.1,0,0.4-0.1,0.8c0,0.4-0.1,0.9-0.3,1.6c-0.1,1-0.2,1.9-0.3,2.9s-0.3,1.9-0.4,2.8c-0.1,1.1-0.3,2.2-0.5,3.1
			c-0.2,0.9-0.5,1.8-0.9,2.5c-0.1,0.4-0.2,0.9-0.4,1.5s-0.5,1.1-0.8,1.8l-0.7,0.8c0,0-0.5,0.2-1.5,0.4s-1.5,0.3-1.6,0.3
			c-0.2,0-0.6-0.2-1.1-0.6c-0.5-0.4-1-1-1.7-1.8c-0.6-0.7-1.1-1.4-1.5-1.8c-0.4-0.5-0.6-0.8-0.7-1.1c0-0.1-0.1-0.2-0.1-0.4
			c-0.1-0.1-0.1-0.3-0.2-0.5c-0.3-0.4-0.7-1-1.2-1.7s-1-1.4-1.7-2.4c-0.1-0.2-0.3-0.4-0.4-0.7c-0.2-0.2-0.4-0.4-0.6-0.7l-0.2,0
			c-0.1,0.2-0.2,0.5-0.3,0.8c-0.1,0.3-0.2,0.7-0.4,1.1c-0.2,0.3-0.3,0.5-0.5,0.7c-0.2,0.6-0.5,1.2-0.8,1.9c-0.3,0.7-0.6,1.4-1,2.2
			c-0.1,0.3-0.2,0.5-0.3,0.8c-0.1,0.3-0.2,0.6-0.3,0.9l-0.4,0.5c-0.1,0.3-0.1,0.6-0.2,0.9c-0.1,0.2-0.3,0.5-0.4,0.8
			s-0.4,0.7-0.6,1.2c0,0.2-0.2,0.4-0.3,0.5c-0.2,0.1-0.4,0.2-0.8,0.2c0,0-0.1,0.1-0.2,0.1s-0.3,0.1-0.5,0.1c-0.2,0-0.3,0-0.4-0.2
			c-0.1-0.1-0.1-0.3-0.1-0.6c0-0.1,0-0.4,0.1-0.7c0.1-0.3,0.2-0.7,0.4-1.2c0.2-0.5,0.3-0.9,0.4-1.2c0.1-0.3,0.2-0.5,0.2-0.6
			c0.1-0.2,0.1-0.6,0.2-1c0.1-0.4,0.2-0.9,0.3-1.4c0-0.1,0.1-0.3,0.2-0.5c0.1-0.2,0.2-0.4,0.3-0.7c0.1-0.2,0.2-0.8,0.5-1.7
			c0.2-0.9,0.5-2.2,0.9-3.8C87.4,111.4,87.8,109.8,88.2,108.2z"/>
		<path id="XMLID_93_" class="st0" d="M111.4,121.7c0-0.6,0-1.1,0.1-1.4s0.2-0.7,0.3-0.9c0-0.2-0.1-0.4-0.1-0.5c0-0.2,0-0.6,0.1-1.1
			c0.1-0.5,0.2-1.2,0.4-2c0.1-0.8,0.3-1.4,0.4-1.8s0.2-0.7,0.2-0.8c0-0.2-0.1-0.4-0.1-0.6c0-0.2-0.1-0.4-0.2-0.7l-0.5-0.2l-0.1-0.2
			c0-0.3,0.1-0.6,0.1-0.9c0-0.3,0.1-0.6,0.2-0.9c0-0.4,0.1-0.7,0.2-1c0.1-0.3,0.2-0.5,0.4-0.7c0-0.1,0.1-0.1,0.2-0.2
			c0.1-0.1,0.1-0.2,0.2-0.3c0.1-0.4,0.3-0.7,0.4-1.1c0.1-0.4,0.3-0.7,0.5-1.1c0.2-0.3,0.6-0.6,1-0.8s1-0.4,1.6-0.4
			c0.4-0.2,0.8-0.3,1.1-0.3c0.3-0.1,0.6-0.1,0.8-0.1c0.2,0,0.4,0.1,0.5,0.2c0.1,0.1,0.2,0.3,0.2,0.5c0,0.1-0.1,0.4-0.2,0.8
			c-0.1,0.5-0.3,1.2-0.6,2c0,0.3-0.1,0.6-0.2,1c-0.1,0.4-0.3,0.9-0.5,1.4c-0.2,0.6-0.5,1.3-0.7,2s-0.4,1.5-0.6,2.4
			c-0.1,0.4-0.2,0.7-0.3,1.1c-0.1,0.4-0.2,0.7-0.3,1.1c-0.1,0.4-0.2,0.8-0.3,1.2c-0.1,0.4-0.1,0.7-0.1,1c0,0.1,0,0.2,0,0.3
			c0,0.1,0,0.2,0,0.3c0,0.1,0,0.3,0,0.4c0,0.2-0.1,0.4-0.1,0.7c-0.1,0.2-0.1,0.5-0.2,0.7c0,0.2-0.1,0.3-0.1,0.5c0,0.5,0,0.9,0.1,1.3
			c0,0.3,0.1,0.5,0.1,0.6c0.1,0.3,0.2,0.6,0.3,0.9c0,0.2-0.4,0.4-1.1,0.8s-1.2,0.5-1.6,0.5c-0.2,0-0.4,0-0.5-0.1s-0.3-0.2-0.5-0.4
			c-0.1-0.2-0.2-0.3-0.3-0.4c-0.1-0.1-0.1-0.3-0.1-0.4c0-0.1,0-0.2,0.1-0.3c0.1-0.1,0.1-0.2,0.1-0.3c-0.1-0.3-0.3-0.6-0.4-0.8
			c0,0.1,0,0.1,0-0.1C111.4,122.4,111.4,122.1,111.4,121.7z"/>
		<path id="XMLID_95_" class="st0" d="M124.1,108.2l-0.4-1c0.1-0.2,0.2-0.4,0.3-0.6c0.1-0.2,0.2-0.4,0.3-0.6
			c0.1-0.1,0.3-0.3,0.5-0.3c0.2-0.1,0.5-0.1,0.9-0.1c0.1,0,0.4,0,0.7-0.1c0.3,0,0.5-0.1,0.6-0.1c0.1,0,0.3,0.1,0.6,0.2
			c0.2,0.1,0.4,0.2,0.5,0.2c0.1-0.1,0.3-0.1,0.4-0.3c0.2-0.1,0.4-0.3,0.6-0.5c0.2-0.2,0.4-0.3,0.6-0.4s0.4-0.2,0.6-0.2
			c0.3,0.1,0.5,0.1,0.7,0.2c0.1,0,0.2,0.1,0.2,0.1c0,0.1,0.1,0.1,0.1,0.2c0,0.1,0,0.2-0.1,0.3c-0.1,0.2-0.2,0.4-0.4,0.7
			c-0.2,0.3-0.3,0.6-0.4,0.8s-0.2,0.4-0.2,0.5c-0.2,0.2-0.4,0.4-0.6,0.6c-0.1,0.2-0.2,0.4-0.2,0.5c0,0.2,0.1,0.5,0.3,0.9
			c0.2,0.4,0.5,0.9,0.8,1.5c0.5,0.8,1,1.7,1.6,2.6c0.5,1,1,1.9,1.5,2.8c0.5,0.9,1.1,1.8,1.6,2.6c0.6,0.9,1.1,1.5,1.5,2
			c0.4,0.4,0.7,0.6,0.9,0.6c0.2,0,0.3-0.1,0.3-0.2c0.1-0.1,0.1-0.3,0.1-0.6c0-0.1,0-0.2,0.1-0.4s0.1-0.3,0.2-0.5
			c0.1-0.3,0.3-0.6,0.4-0.9c0.2-0.5,0.3-1,0.4-1.4s0.3-0.7,0.3-1c0.1-0.2,0.1-0.6,0.2-1.2s0.2-1.4,0.2-2.4c0-0.1,0-0.2,0.1-0.4
			c0.1-0.2,0.1-0.4,0.2-0.6c0.1-0.2,0.1-0.4,0.1-0.6c0-0.2,0-0.3,0-0.5c0-0.2,0-0.6-0.1-1c-0.1-0.5-0.1-0.8-0.1-1
			c0.2-0.6,0.5-1.3,0.7-1.9c0.2-0.5,0.3-1,0.5-1.3s0.3-0.6,0.4-0.8c0.3-0.4,0.6-0.7,0.9-1c0.4-0.3,0.8-0.5,1.2-0.7h0.2
			c0.2,0,0.3,0,0.3,0.1c0.1,0,0.1,0.1,0.1,0.2c-0.1,0.2-0.2,0.4-0.2,0.5c0,0.2,0.1,0.4,0.1,0.6c0,0.3-0.1,0.5-0.2,0.6
			c0,0.1-0.1,0.3-0.1,0.5s0,0.5,0,0.8c0,0.1,0,0.4-0.1,0.8c0,0.4-0.1,0.9-0.3,1.6c-0.1,1-0.2,1.9-0.3,2.9s-0.3,1.9-0.4,2.8
			c-0.1,1.1-0.3,2.2-0.5,3.1c-0.2,0.9-0.5,1.8-0.9,2.5c-0.1,0.4-0.2,0.9-0.4,1.5s-0.5,1.1-0.8,1.8l-0.7,0.8c0,0-0.5,0.2-1.5,0.4
			s-1.5,0.3-1.6,0.3c-0.2,0-0.6-0.2-1.1-0.6c-0.5-0.4-1-1-1.7-1.8c-0.6-0.7-1.1-1.4-1.5-1.8c-0.4-0.5-0.6-0.8-0.7-1.1
			c0-0.1-0.1-0.2-0.1-0.4c-0.1-0.1-0.1-0.3-0.2-0.5c-0.3-0.4-0.7-1-1.2-1.7s-1-1.4-1.7-2.4c-0.1-0.2-0.3-0.4-0.4-0.7
			c-0.2-0.2-0.4-0.4-0.6-0.7l-0.2,0c-0.1,0.2-0.2,0.5-0.3,0.8c-0.1,0.3-0.2,0.7-0.4,1.1c-0.2,0.3-0.3,0.5-0.5,0.7
			c-0.2,0.6-0.5,1.2-0.8,1.9c-0.3,0.7-0.6,1.4-1,2.2c-0.1,0.3-0.2,0.5-0.3,0.8c-0.1,0.3-0.2,0.6-0.3,0.9l-0.4,0.5
			c-0.1,0.3-0.1,0.6-0.2,0.9c-0.1,0.2-0.3,0.5-0.4,0.8s-0.4,0.7-0.6,1.2c0,0.2-0.2,0.4-0.3,0.5c-0.2,0.1-0.4,0.2-0.8,0.2
			c0,0-0.1,0.1-0.2,0.1s-0.3,0.1-0.5,0.1c-0.2,0-0.3,0-0.4-0.2c-0.1-0.1-0.1-0.3-0.1-0.6c0-0.1,0-0.4,0.1-0.7
			c0.1-0.3,0.2-0.7,0.4-1.2c0.2-0.5,0.3-0.9,0.4-1.2c0.1-0.3,0.2-0.5,0.2-0.6c0.1-0.2,0.1-0.6,0.2-1c0.1-0.4,0.2-0.9,0.3-1.4
			c0-0.1,0.1-0.3,0.2-0.5c0.1-0.2,0.2-0.4,0.3-0.7c0.1-0.2,0.2-0.8,0.5-1.7c0.2-0.9,0.5-2.2,0.9-3.8
			C123.4,111.4,123.8,109.8,124.1,108.2z"/>
		<path id="XMLID_97_" class="st0" d="M154.2,105.3c0.2-0.2,0.4-0.3,0.7-0.4c0.3-0.1,0.7-0.2,1.1-0.3c0.2-0.2,0.5-0.3,0.8-0.5
			c0.1-0.1,0.2-0.1,0.4-0.2s0.4-0.1,0.6-0.2c0.3-0.1,0.6-0.2,0.8-0.2c0.4,0,0.7,0.2,0.8,0.5c0.2,0.4,0.3,0.9,0.3,1.6
			c0,1.1-0.1,2.1-0.3,3c-0.2,0.9-0.5,1.7-1,2.4c0,0.1-0.1,0.2-0.2,0.3s-0.1,0.2-0.2,0.3c0,0.2-0.1,0.4-0.2,0.6
			c-0.1,0.2-0.2,0.5-0.3,0.9c0,0.1-0.1,0.2-0.1,0.4c0,0.1,0,0.3-0.1,0.5c0,0.1-0.1,0.4-0.3,0.7s-0.4,0.7-0.7,1.2l0.1,0.3
			c-0.1,0.3-0.3,0.6-0.5,1.1s-0.5,0.9-0.8,1.4c-0.1,0.3-0.2,0.6-0.4,1c-0.2,0.4-0.4,0.8-0.7,1.3c0,0.3-0.1,0.5-0.1,0.7
			c0,0.1-0.1,0.3-0.3,0.7c-0.2,0.4-0.5,0.9-0.9,1.5c-0.1,0.2-0.3,0.3-0.6,0.5c-0.3,0.1-0.7,0.3-1.2,0.4c-0.4,0.1-0.8,0.2-1.2,0.3
			c-0.4,0.1-0.8,0.1-1.1,0.1c-0.5,0-1-0.1-1.4-0.2c-0.4-0.1-0.7-0.4-0.8-0.6c-0.6-1-1.1-1.8-1.4-2.3c-0.3-0.6-0.4-1-0.4-1.2
			c-0.1-0.1-0.2-0.3-0.3-0.5c-0.2-0.2-0.3-0.6-0.5-1c-0.2-0.4-0.3-0.7-0.3-0.9s-0.1-0.5-0.1-0.6c0-0.7,0.1-1.2,0.2-1.5
			c0.2-0.3,0.4-0.5,0.7-0.5c0.6,0,1,0.1,1.4,0.2s0.8,0.2,1,0.4c0.2,0.1,0.3,0.3,0.5,0.6c0.2,0.3,0.4,0.6,0.6,1
			c0.3,0.5,0.6,0.8,0.7,1.1c0.2,0.3,0.2,0.5,0.2,0.6c0,0.2-0.2,0.4-0.6,0.5c-0.4,0.1-0.6,0.3-0.6,0.4c0.1,0.2,0.3,0.4,0.4,0.5
			c0.1,0.2,0.2,0.4,0.3,0.5c0.2,0.3,0.4,0.5,0.5,0.6c0.2,0.1,0.4,0.2,0.6,0.2c0.3,0,0.5-0.2,0.9-0.7s0.7-1.2,1.1-2.1
			c0.3-0.7,0.6-1.3,0.8-1.9c0.2-0.6,0.4-1.1,0.5-1.5c0.1-0.2,0.2-0.4,0.4-0.7c0.1-0.3,0.3-0.6,0.4-1c0-0.1,0.1-0.2,0.1-0.3
			c0-0.1,0-0.3,0.1-0.4c0.1-0.5,0.3-1,0.4-1.6c0.2-0.5,0.3-1,0.4-1.6c0.2-0.6,0.3-1.2,0.3-1.7c0.1-0.5,0.1-1,0.1-1.4
			c0-0.4-0.4-0.6-1.2-0.7s-1.2-0.2-1.2-0.4c0-0.1,0.1-0.3,0.4-0.5S153.6,105.5,154.2,105.3z"/>
		<path id="XMLID_99_" class="st0" d="M159.1,119.1c0-0.1-0.1-0.2-0.1-0.3c0-0.1,0-0.1,0-0.2c0-0.3,0.1-0.6,0.2-0.9
			c0.1-0.2,0.3-0.4,0.6-0.6c0.1,0,0.2-0.1,0.5-0.2c0.3-0.1,0.6-0.2,1-0.3c0.3-0.1,0.5-0.2,0.7-0.3c0.2-0.1,0.3-0.3,0.3-0.5
			c0-0.1,0.1-0.3,0.3-0.5s0.3-0.4,0.5-0.6c0.1-0.1,0.3-0.4,0.6-1.1c0.3-0.6,0.8-1.6,1.3-2.8c0.2-0.4,0.3-0.7,0.5-1s0.3-0.5,0.4-0.7
			c0.5-0.9,0.9-1.4,1.3-1.7c0.3-0.3,0.6-0.5,0.7-0.7v-0.1l-0.7-0.8l0.9-0.7l1.2-0.2c0.2,0,0.5-0.2,0.7-0.4c0.2-0.3,0.5-0.6,1-0.9
			c0.1,0,0.3-0.1,0.5-0.2c0.2-0.1,0.6-0.3,0.9-0.5c0.3-0.2,0.6-0.3,0.9-0.4s0.4-0.1,0.6-0.1c0.4,0,0.7,0.1,0.9,0.2s0.3,0.3,0.3,0.4
			c0,0.2-0.2,0.6-0.5,1c-0.4,0.4-0.5,0.8-0.5,1c0,0.1,0,0.2,0.1,0.3c0.1,0.1,0.2,0.1,0.3,0.1l2.9,1c0.2,0,0.3,0.2,0.4,0.5
			c0.1,0.3,0.2,0.7,0.3,1.2c0.1,0.4,0.2,0.7,0.2,1c0.1,0.3,0.1,0.5,0.1,0.6c-0.1,0.4-0.2,0.9-0.3,1.3c0.2,0.6,0.3,1.2,0.5,1.8
			c-0.1,0.6-0.2,1.2-0.3,1.8c0,0.1,0,0.1,0.1,0.2c0,0,0.1,0.1,0.2,0.1c0.3,0,0.5,0.1,0.6,0.1c0.1,0.1,0.2,0.2,0.2,0.3
			c0,0.2,0,0.3-0.1,0.4c-0.1,0.1-0.2,0.2-0.4,0.3c-0.2,0.1-0.4,0.2-0.5,0.2c-0.1,0.1-0.2,0.1-0.3,0.2l0.3,0.9l-0.4,2.2
			c0,0.2,0,0.4-0.1,0.7c0,0.3-0.1,0.6-0.2,1c-0.2,0.3-0.3,0.5-0.4,0.7c-0.1,0.2-0.1,0.3-0.1,0.4c0.1,0.2,0.2,0.4,0.2,0.6
			c-0.1,0.3-0.2,0.6-0.3,0.8c-0.1,0.3-0.2,0.5-0.3,0.8c-0.2,0.4-0.4,0.6-0.7,0.8s-0.6,0.3-1,0.3c-0.2,0-0.4-0.1-0.5-0.2
			c-0.1-0.1-0.2-0.3-0.2-0.5c0-0.1,0-0.3,0.1-0.4c0.1-0.2,0.1-0.3,0.1-0.4c0-0.1,0-0.2,0-0.3c0-0.1,0-0.2,0-0.3c0-0.3,0-0.7,0.1-1.4
			s0.1-1.1,0.1-1.4c-0.1-0.2-0.2-0.4-0.2-0.5c0-0.2,0.1-0.4,0.1-0.6c0-0.2,0-0.4,0-0.6l0.4-0.4l-0.3-1.4l-0.2,0
			c-0.1,0-0.2,0-0.4,0.1c-0.2,0-0.4,0.1-0.7,0.2c-0.2,0-0.5,0.1-0.9,0.1s-0.9,0.1-1.6,0.1c-0.3,0.1-0.6,0.2-0.8,0.2
			c-0.4,0.1-0.8,0.1-1.4,0.3c-0.6,0.1-1.2,0.3-1.9,0.5c-0.4,0.1-0.8,0.2-1.2,0.3c-0.4,0.1-0.7,0.1-0.9,0.1c-0.2,0-0.4,0-0.5,0.1
			c-0.1,0.1-0.2,0.2-0.3,0.4c0,0.2-0.2,0.4-0.3,0.7c-0.2,0.3-0.4,0.6-0.7,1.1c-0.1,0.1-0.2,0.3-0.3,0.5c-0.1,0.2-0.2,0.5-0.4,0.9
			c-0.1,0.1-0.2,0.3-0.3,0.5c-0.1,0.2-0.3,0.4-0.4,0.7c0,0.1,0,0.3-0.1,0.5c0,0.2-0.1,0.4-0.2,0.6c-0.1,0.1-0.2,0.3-0.3,0.5
			c-0.1,0.2-0.3,0.5-0.5,0.7c-0.1,0.2-0.3,0.3-0.5,0.4c-0.2,0.1-0.5,0.1-0.9,0.1c-0.3,0-0.5-0.1-0.6-0.2s-0.2-0.3-0.2-0.5
			c0-0.3,0-0.6,0.1-0.9c0.1-0.3,0.2-0.7,0.5-1.1c0.2-0.5,0.4-1,0.6-1.3c0.2-0.3,0.2-0.6,0.3-0.7c0-0.1,0.1-0.2,0.2-0.4
			c0.1-0.2,0.2-0.4,0.3-0.7c0.1-0.3,0.3-0.5,0.4-0.9l-0.1-0.1l-0.8,0.1c-0.2,0-0.3-0.1-0.4-0.1c-0.1-0.1-0.1-0.2-0.1-0.3
			c0-0.1,0-0.2,0-0.2C158.9,119.4,159,119.3,159.1,119.1z M167.7,116.3c0.4,0,0.9-0.1,1.6-0.2c0.7-0.1,1.3-0.2,1.6-0.2
			c0.2,0,0.4,0.1,0.7,0.1c0.4-0.1,0.8-0.1,1.2-0.2c0.4-0.1,0.8-0.1,1.2-0.2c0.2,0,0.3-0.1,0.4-0.1c0.1-0.1,0.1-0.1,0.1-0.2
			c0-0.3,0-0.5,0-0.6c0-0.2,0-0.4,0.1-0.7c0-0.2,0.1-0.5,0.2-0.7l-0.3-0.7l0.1-0.6c-0.1-0.2-0.1-0.4-0.2-0.6c0-0.2,0-0.4,0-0.5
			c0,0-0.1-0.1-0.2-0.2s-0.2-0.2-0.3-0.3c-0.2-0.2-0.3-0.3-0.5-0.5s-0.3-0.3-0.5-0.5c-0.2-0.2-0.5-0.3-0.7-0.4
			c-0.3-0.1-0.5-0.1-0.8-0.1c-0.3,0-0.6,0.2-1,0.5c-0.3,0.3-0.6,0.8-0.9,1.5c0,0.1-0.2,0.3-0.4,0.5c-0.2,0.3-0.5,0.6-0.9,1
			c-0.1,0.4-0.3,0.9-0.6,1.4c-0.4,0.6-0.9,1.3-1.5,2c-0.1,0.1-0.1,0.1-0.1,0.2c0,0.1,0,0.1,0,0.2c0,0.1,0,0.1,0.1,0.2
			c0.1,0,0.1,0.1,0.3,0.1c0.2,0,0.4,0,0.8,0C167.3,116.3,167.6,116.3,167.7,116.3z"/>
	</g>
	<g id="XMLID_87_">
		<path id="XMLID_88_" class="st0" d="M150.8,136.5c0,0.4-0.2,0.7-0.7,0.7c-0.8,0-4.1-0.2-9.8-0.5c-0.1,5.5-0.2,9.4-0.2,11.5
			c0,2.6,0.1,6.4,0.3,11.6c0.2,5.2,0.3,9,0.3,11.6c0,0.4-0.1,0.7-0.3,0.8c-0.1,0-0.4,0.1-0.9,0.2c-1.3,0.2-3.2,0.3-5.8,0.3
			c-2.8,0-4.8-0.1-5.9-0.3c-0.6-0.1-0.9-0.4-0.9-1c0-2.6,0.1-6.4,0.3-11.6c0.2-5.1,0.3-9,0.3-11.6c0-1.7-0.1-5.5-0.3-11.4
			c-4.4,0.4-7.8,0.7-10.4,0.7c-0.3,0-0.5-0.1-0.5-0.3c0-0.3,0.2-1.1,0.5-2.5c0.3-1.5,0.5-2.5,0.6-2.8c0.1-1,0.1-2,0.2-3.1
			c0.2-1.6,0.4-2.5,0.8-2.5c0,0,0.2,0,0.5,0c3.5,0.5,8.8,0.7,15.7,0.7c2,0,5.6-0.2,10.9-0.6c2.8-0.2,4.3-0.3,4.3-0.3
			c0.4,0,0.7,0,0.8,0.1c0.1,0.1,0.1,0.3,0.1,0.6c0,0.6,0,1.4-0.1,2.5c0,1.2-0.1,2-0.1,2.5c0,0.5,0.1,1.3,0.2,2.4
			C150.7,135.2,150.8,136,150.8,136.5z"/>
	</g>
</g>
</svg>
