<?xml version="1.0" encoding="utf-8"?>
<!-- Generator: Adobe Illustrator 19.0.0, SVG Export Plug-In . SVG Version: 6.00 Build 0)  -->
<svg version="1.1" id="Layer_1" xmlns="http://www.w3.org/2000/svg" xmlns:xlink="http://www.w3.org/1999/xlink" x="0px" y="0px"
	 viewBox="0 0 300 70" style="enable-background:new 0 0 300 70;" xml:space="preserve">
<style type="text/css">
	.st0{fill:#FFFFFF;}
</style>
<g id="XMLID_1_">
	<path id="XMLID_159_" class="st0" d="M39.8,46.9c0,1.1,0,1.9,0,2.8c0.9,0,1.8,0,2.9,0c-2.6,4.4-5,8.6-7.5,13
		c-0.6-1-1.1-1.7-1.5-2.5c-0.5-0.9-0.8-1.6-2.1-1.4c-1.2,0.1-1.5-1.1-1.5-2.1c0-0.9-0.4-1.2-1.2-1.4c-5.5-1.5-11-3.1-16.5-4.7
		c-0.6-0.2-1.5-0.7-1.5-1c0-0.9,0.4-1.9,0.8-2.7c0.1-0.2,1-0.2,1.4,0c5.5,1.5,11,3.1,16.5,4.7c1,0.3,1.7,0.3,2.3-0.6
		c0.6-0.8,1.4-1.3,2.7-0.9C36.1,50.5,38.1,49.3,39.8,46.9z"/>
	<path id="XMLID_158_" class="st0" d="M24.1,17.2c0.1,1.2,0.2,2.4,0.4,3.8c-4.7,0-9.1,0-13.8,0c0.3,0.6,0.4,1,0.6,1.3
		c3,5.2,6,10.4,9,15.6c0.8,1.4,1.5,2.7,0.7,4.2l0-0.1c-0.2,0.4-0.4,0.8-0.7,1.4c1-0.2,1.9-0.3,2.7-0.4c1.3,1.5,1.3,1.5-1.1,4.8
		C16.2,37.7,10.4,27.7,4.5,17.4c0.8,0,1.2,0,1.7,0c5.6,0,11.2,0,16.7,0C23.3,17.4,23.7,17.3,24.1,17.2
		C24.1,17.2,24.1,17.2,24.1,17.2z"/>
	<path id="XMLID_157_" class="st0" d="M27.7,50c1.6-0.5,0.6-1.8,1-2.6c1,0.8,1.9,1.7,2.9,2.5C30.2,51.2,30.1,51.2,27.7,50z"/>
	<g id="XMLID_139_">
		<path id="XMLID_155_" class="st0" d="M79.2,41.9l0,4.5l0.1,11.9v0.9H67.9l0.1-13.8l-0.1-11.5h19.7c0.9,0,1.4,0,1.5,0.1
			c0.3,0.1,0.4,0.3,0.4,0.6c0,0.4-0.3,0.6-0.8,0.6h-0.1L79.3,35l-0.1,5.8l2,0l6.5-0.1l1.4,0c0.5,0,0.9,0,1,0.1
			c0.2,0.1,0.3,0.3,0.3,0.5c0,0.5-0.4,0.7-1.2,0.7l-1.5,0L79.2,41.9z"/>
		<path id="XMLID_152_" class="st0" d="M109.4,54.9c1.2,0.8,2.5,1.5,3.8,2.1c1.4,0.6,2.9,1,4.4,1.3c0.4,0.1,0.6,0.3,0.6,0.6
			c0,0.4-0.3,0.6-0.9,0.6c-1.3,0-3.1-0.6-5.5-1.7c-2-1-4.2-2.4-6.7-4.4v0.8l0,3.2v1.8H94v-0.8l0-6.1l0.1-7.2l0-11.2h7.5
			c3.3,0,5.9,0.1,7.6,0.3s3.2,0.5,4.4,1c2,0.8,3.5,2.2,4.6,4c1.1,1.7,1.6,3.6,1.6,5.5c0,2-0.6,3.9-1.8,5.7
			C116,53.2,113.2,54.7,109.4,54.9z M107.7,53.8l0.9,0c2.5,0,4.7-0.7,6.5-2.1c1.1-0.9,2-2,2.6-3.3c0.6-1.2,0.8-2.5,0.8-3.8
			c0-2.2-0.7-4.1-2.1-5.8c-1.1-1.3-2.4-2.3-4-2.8c-1.6-0.5-3.9-0.8-6.8-0.9l-0.2,12.4v3.4l0,0.9C106,52.5,106.8,53.1,107.7,53.8z"/>
		<path id="XMLID_149_" class="st0" d="M136.4,33c2,0,3.8,0.4,5.7,1.2c2.7,1.2,4.7,3.1,6.1,5.7c1.1,2,1.7,4.3,1.7,6.7
			c0,1.9-0.4,3.8-1.3,5.6c-1.3,2.7-3.3,4.7-6,6.1c-2,1-4.1,1.5-6.2,1.5c-2.3,0-4.5-0.6-6.5-1.7c-2.7-1.5-4.7-3.7-5.8-6.5
			c-0.7-1.7-1.1-3.4-1.1-5.3c0-2.3,0.6-4.4,1.7-6.5c1.4-2.5,3.4-4.4,6.1-5.7C132.4,33.4,134.3,33,136.4,33z M134.9,34.3l-0.1,12.1
			l0.1,10l0,2.3c0.4,0.1,0.8,0.1,1.2,0.1c2.7,0,5.2-0.8,7.3-2.3c2-1.4,3.4-3.2,4.3-5.3c0.6-1.5,0.9-3.1,0.9-4.7c0-2.2-0.5-4.2-1.6-6
			c-1.3-2.3-3.1-4-5.4-5c-1.7-0.8-3.6-1.2-5.5-1.2C135.8,34.1,135.3,34.2,134.9,34.3z"/>
		<path id="XMLID_147_" class="st0" d="M176.9,46.1V43l0-4.9l0-2.2l0-1.4c0-0.7,0.2-1,0.7-1c0.3,0,0.5,0.1,0.6,0.2
			c0.1,0.2,0.2,0.4,0.2,0.9v0.3c0,0.3,0,0.7,0,1.3l-0.1,6.3l-0.1,5.7l0,6l0.1,6.1c-2.5-1.6-6.3-3.8-11.2-6.6
			c-4.9-2.8-8.9-5-11.9-6.6l0,0.9l0.2,9.6l0,1.3c0,0.5-0.2,0.8-0.7,0.8c-0.5,0-0.8-0.3-0.8-1l0-1.3l0-2.1l0.1-9.5l-0.1-12.8
			C158.8,35.8,166.5,40.3,176.9,46.1z"/>
		<path id="XMLID_145_" class="st0" d="M226.9,41.9c0,0.6,0,1.3,0,2.1v1.1l0.1,12.8l6.3-0.1l4.5,0c0.7,0,1.1,0.2,1.1,0.7
			c0,0.4-0.2,0.6-0.6,0.6c-0.1,0-0.6,0-1.5,0h-21.1l0-1l0-6.2l0.1-6.6l-0.1-11.5h19.7c0.9,0,1.4,0,1.5,0.1c0.3,0.1,0.4,0.3,0.4,0.6
			c0,0.4-0.3,0.6-0.8,0.6h-0.1L227,35l-0.1,5.8l2,0l6.5-0.1l1.4,0c0.5,0,0.9,0,1,0.1s0.3,0.3,0.3,0.5c0,0.5-0.4,0.7-1.2,0.7l-1.5,0
			L226.9,41.9z"/>
		<path id="XMLID_143_" class="st0" d="M265.1,46.1V43l0-4.9l0-2.2l0-1.4c0-0.7,0.2-1,0.7-1c0.3,0,0.5,0.1,0.6,0.2
			c0.1,0.2,0.2,0.4,0.2,0.9v0.3c0,0.3,0,0.7,0,1.3l-0.1,6.3l-0.1,5.7l0,6l0.1,6.1c-2.5-1.6-6.3-3.8-11.2-6.6s-8.9-5-11.9-6.6l0,0.9
			l0.2,9.6l0,1.3c0,0.5-0.2,0.8-0.7,0.8c-0.5,0-0.8-0.3-0.8-1l0-1.3l0-2.1l0.1-9.5L242,32.7C247,35.8,254.7,40.3,265.1,46.1z"/>
		<path id="XMLID_140_" class="st0" d="M271.6,33.8h9.8c2.5,0,4.5,0.1,5.8,0.4c3.2,0.6,5.7,2.3,7.7,5.1c1.5,2.2,2.3,4.6,2.3,7.2
			c0,2.7-0.8,5.1-2.4,7.3c-1.9,2.7-4.4,4.3-7.5,5c-0.8,0.2-1.5,0.3-2.1,0.3c-0.6,0-2,0.1-4.1,0.1h-9.4l0.1-12.3L271.6,33.8z M283,35
			l-0.1,14.9l0.1,8c1.7,0,2.8-0.1,3.6-0.2c0.7-0.1,1.6-0.4,2.5-0.8c2.2-1,4-2.5,5.2-4.6c1.1-1.8,1.7-3.8,1.7-5.9
			c0-2.3-0.6-4.4-1.9-6.3c-2.3-3.4-5.7-5.1-10.3-5.1L283,35z"/>
	</g>
	<g id="XMLID_136_">
		<path id="XMLID_138_" class="st0" d="M33.2,44.3c-2.2,0-4.2,0-6.4,0c1.3-3.1,3.3-5.4,5.9-7.6c-0.4,1.9-0.7,3.5-1,5.1
			c0.1,0,0.2,0.1,0.3,0.1c0.3-0.8,0.6-1.5,0.9-2.3c0.1,0,0.2,0,0.3,0c0,1.2,0,2.4,0,3.6c1,0,1.9,0.5,2-0.9c0-0.2,0.7-0.4,1.1-0.7
			c1.4-1.3,1.4-1.6,0.3-2.9c-0.9-0.3-1.7-0.6-2.7-0.9c1-1.9-1.2-2.6-1.7-4.3c-1.1,1.5-2.3,1.7-3.6,1.2c-0.4-0.2-0.7-0.7-0.9-1
			c0.7-0.5,1.5-0.9,1.5-1.2c-0.1-1.6-1.7-0.9-3-1.4c1-0.5,1.6-0.8,2.6-1.2c-1.2-0.1-2.1-0.3-3-0.4c0-0.1,0-0.2,0-0.3
			c0.6-0.2,1.2-0.3,2-0.6c-1.5-0.8-3.3,0-4.6-1.5c0.9-0.1,1.5-0.1,2-0.1c0.1-0.5,0.1-0.9,0.1-1.2c0.8,0.2,1.7,0.4,2.7,0.6
			c1-1.9,2.1-4,3.2-6.1c-0.9-0.7-0.9-0.7-3.3,0.7c0.2,0.1,0.5,0.2,0.5,0.2c-0.1,0.3-0.1,0.8-0.3,0.9c-0.9,0.5-1,2.3-2.5,1.7
			c-0.6-0.2-1.2-0.8-1.5-1.4c-0.2-0.5,0.2-1.2,0.4-2.1c0.2,0.4,0.3,0.6,0.4,0.9c0.2-0.2,0.4-0.4,0.7-0.6c0.8-0.7,1.7-1.4,1.5-2.8
			c-0.3-1.4,0.5-2.3,1.6-3.1c-1,0.5-2,1.1-3,1.6c-0.5,0.2-1.1,0.4-1.6,0.6c0,0,0,0,0,0c-0.2-0.6-0.5-1.1-0.9-2.1
			c0.5,0.3,0.7,0.4,0.9,0.5c0.1-0.5,0.3-1,0.5-1.8c0.1,0.6,0.2,0.9,0.2,0.9c2.6-1.7,5.2-3.5,7.9-5.4c0,0-0.1-0.2-0.4-0.6
			c0.5,0.1,0.9,0.1,1.3,0.2c-0.2-0.5-0.3-0.9-0.4-1.1c2.6,0.1,5.2,0.3,7.9,0.4c0.3,0,0.6,0,0.9,0c1.3,0,2.3,0.5,2.8,1.7
			c0.4,0.9,0,1.7-1.3,2.9c0.4,1.2,0.8,2.3,1.1,3.4c0.2,1,0.7,1.2,1.6,1.2c5.8,0,11.7,0,17.5,0c0.6,0,1.2,0,2.2,0
			C60.4,27,55,36.2,49.7,45.5c-1.1-0.5-2.1-0.9-3.1-1.3c0.2-0.5,0.4-1,0.6-1.5l0,0c0.9,0.2,1.9,0.5,2.9,0.7C50,43.1,50,43,50,42.9
			c-1.2-2.1-0.8-3.9,0.5-6c3.2-5.2,6.2-10.5,9.3-16c-0.9,0-1.6,0-2.3,0c-3.6,0-7.2,0-10.8,0c-2.1,0-2.1,0-2.7,2.3
			c0.4,0,0.8-0.1,1.2-0.1c0.1,0.1,0.1,0.2,0.2,0.2c-0.4,0.3-0.9,0.5-1.2,0.8c0.5,0.8,0.8,1.4,1.2,2.1c-0.1,0.1-0.2,0.3-0.3,0.4
			c1.6,0,3.2,0,4.7,0c-3.4,1.5-5.4,3.9-6.1,7.5c-0.7,3.4,0,6.6,1.1,10.1c-3.2,0-6.3,0-9.5,0"/>
		<path id="XMLID_137_" class="st0" d="M34.5,37.5c0,0-1.5,0.5-1.5,3.6v2.7c0,0,0.7-0.2,1.2,0c0.5,0.2,2.5,0.1,2.6,0
			s1.8-2.5,1.8-2.8c0-0.3-0.7-2.6-0.7-2.6l-2.1-1.4L34.5,37.5z"/>
	</g>
	<g id="XMLID_124_">
		<path id="XMLID_134_" class="st0" d="M69.6,12.1l-0.5-1c0.1-0.2,0.2-0.4,0.3-0.6c0.1-0.2,0.2-0.4,0.3-0.6c0.1-0.1,0.3-0.3,0.6-0.3
			c0.3-0.1,0.7-0.1,1.1-0.1c0.2,0,0.4,0,0.8-0.1c0.4,0,0.6-0.1,0.8-0.1c0.2,0,0.4,0.1,0.7,0.2c0.3,0.1,0.5,0.2,0.6,0.2
			c0.1-0.1,0.3-0.1,0.5-0.3c0.2-0.1,0.4-0.3,0.7-0.5c0.3-0.2,0.5-0.3,0.7-0.4s0.5-0.2,0.8-0.2c0.3,0.1,0.6,0.1,0.8,0.2
			c0.1,0,0.2,0.1,0.3,0.1c0,0.1,0.1,0.1,0.1,0.2c0,0.1,0,0.2-0.1,0.3C78.1,9.4,78,9.7,77.8,10c-0.2,0.3-0.4,0.6-0.5,0.8
			s-0.2,0.4-0.2,0.5c-0.3,0.2-0.5,0.4-0.7,0.6c-0.2,0.2-0.2,0.4-0.2,0.5c0,0.2,0.1,0.5,0.3,0.9c0.2,0.4,0.6,0.9,1,1.5
			c0.6,0.8,1.2,1.7,1.9,2.6c0.6,1,1.2,1.9,1.8,2.8c0.6,0.9,1.3,1.8,2,2.6c0.7,0.9,1.3,1.5,1.8,2c0.5,0.4,0.8,0.6,1,0.6
			c0.2,0,0.3-0.1,0.4-0.2c0.1-0.1,0.1-0.3,0.1-0.6c0-0.1,0-0.2,0.1-0.4s0.1-0.3,0.2-0.5c0.2-0.3,0.3-0.6,0.5-0.9
			c0.2-0.5,0.4-1,0.5-1.4c0.2-0.4,0.3-0.7,0.4-1c0.1-0.2,0.2-0.6,0.3-1.2c0.1-0.6,0.2-1.4,0.3-2.4c0-0.1,0-0.2,0.1-0.4
			c0.1-0.2,0.1-0.4,0.2-0.6c0.1-0.2,0.1-0.4,0.2-0.6c0-0.2,0.1-0.3,0.1-0.5c0-0.2,0-0.6-0.1-1c-0.1-0.5-0.1-0.8-0.1-1
			c0.3-0.6,0.6-1.3,0.8-1.9c0.2-0.5,0.4-1,0.6-1.3C90.7,9,90.9,8.8,91,8.6c0.3-0.4,0.7-0.7,1.1-1c0.4-0.3,0.9-0.5,1.5-0.7h0.2
			C94,7,94.2,7,94.2,7c0.1,0,0.1,0.1,0.1,0.2c-0.1,0.2-0.2,0.4-0.3,0.5c0.1,0.2,0.1,0.4,0.2,0.6c-0.1,0.3-0.1,0.5-0.2,0.6
			c0,0.1-0.1,0.3-0.1,0.5c0,0.2-0.1,0.5-0.1,0.8c0,0.1,0,0.4-0.1,0.8c-0.1,0.4-0.2,0.9-0.3,1.6c-0.1,1-0.3,1.9-0.4,2.9
			s-0.3,1.9-0.5,2.8c-0.2,1.1-0.4,2.2-0.7,3.1c-0.3,0.9-0.6,1.8-1,2.5c-0.1,0.4-0.3,0.9-0.5,1.5c-0.3,0.6-0.6,1.1-1,1.8l-0.9,0.8
			c-0.1,0-0.7,0.2-1.8,0.4c-1.2,0.2-1.8,0.3-1.9,0.3c-0.3,0-0.7-0.2-1.3-0.6c-0.6-0.4-1.3-1-2.1-1.8c-0.8-0.7-1.4-1.4-1.8-1.8
			c-0.4-0.5-0.7-0.8-0.8-1.1c0-0.1-0.1-0.2-0.2-0.4c-0.1-0.1-0.2-0.3-0.3-0.5c-0.4-0.4-0.9-1-1.5-1.7c-0.6-0.7-1.3-1.4-2-2.4
			c-0.1-0.2-0.3-0.4-0.5-0.7c-0.2-0.2-0.4-0.4-0.7-0.7l-0.2,0c-0.1,0.2-0.3,0.5-0.4,0.8c-0.1,0.3-0.3,0.7-0.5,1.1
			c-0.2,0.3-0.4,0.5-0.6,0.7c-0.3,0.6-0.6,1.2-1,1.9c-0.4,0.7-0.8,1.4-1.2,2.2c-0.1,0.3-0.2,0.5-0.3,0.8c-0.1,0.3-0.3,0.6-0.4,0.9
			l-0.5,0.5c-0.1,0.3-0.2,0.6-0.3,0.9c-0.1,0.2-0.3,0.5-0.5,0.8s-0.5,0.7-0.7,1.2c-0.1,0.2-0.2,0.4-0.4,0.5
			c-0.2,0.1-0.5,0.2-0.9,0.2c0,0-0.1,0.1-0.2,0.1s-0.3,0.1-0.6,0.1c-0.2,0-0.3,0-0.4-0.2c-0.1-0.1-0.1-0.3-0.1-0.6
			c0-0.1,0-0.4,0.1-0.7c0.1-0.3,0.2-0.7,0.4-1.2c0.2-0.5,0.4-0.9,0.5-1.2c0.1-0.3,0.2-0.5,0.2-0.6c0.1-0.2,0.2-0.6,0.3-1
			c0.1-0.4,0.2-0.9,0.3-1.4c0-0.1,0.1-0.3,0.2-0.5c0.1-0.2,0.2-0.4,0.3-0.7c0.1-0.2,0.3-0.8,0.6-1.7c0.3-0.9,0.7-2.2,1.1-3.8
			C68.7,15.3,69.2,13.7,69.6,12.1z"/>
		<path id="XMLID_132_" class="st0" d="M97.8,25.6c0-0.6,0-1.1,0.1-1.4c0.1-0.4,0.2-0.7,0.3-0.9c0-0.2-0.1-0.4-0.1-0.5
			c0-0.2,0-0.6,0.1-1.1c0.1-0.5,0.2-1.2,0.4-2c0.2-0.8,0.3-1.4,0.4-1.8c0.1-0.4,0.2-0.7,0.3-0.8c0-0.2-0.1-0.4-0.1-0.6
			c0-0.2-0.1-0.4-0.2-0.7l-0.6-0.2l-0.1-0.2c0-0.3,0.1-0.6,0.1-0.9c0-0.3,0.1-0.6,0.2-0.9c0-0.4,0.1-0.7,0.3-1
			c0.1-0.3,0.3-0.5,0.4-0.7c0.1-0.1,0.1-0.1,0.2-0.2c0.1-0.1,0.2-0.2,0.3-0.3c0.2-0.4,0.3-0.7,0.5-1.1c0.2-0.4,0.4-0.7,0.6-1.1
			c0.3-0.3,0.7-0.6,1.2-0.8s1.2-0.4,2-0.4c0.5-0.2,1-0.3,1.4-0.3c0.4-0.1,0.7-0.1,0.9-0.1c0.3,0,0.5,0.1,0.6,0.2
			c0.2,0.1,0.2,0.3,0.2,0.5c0,0.1-0.1,0.4-0.2,0.8c-0.2,0.5-0.4,1.2-0.7,2c-0.1,0.3-0.2,0.6-0.3,1c-0.1,0.4-0.3,0.9-0.6,1.4
			c-0.3,0.6-0.6,1.3-0.9,2s-0.5,1.5-0.8,2.4c-0.1,0.4-0.2,0.7-0.3,1.1c-0.1,0.4-0.2,0.7-0.3,1.1c-0.1,0.4-0.2,0.8-0.3,1.2
			c-0.1,0.4-0.1,0.7-0.1,1c0,0.1,0,0.2,0,0.3c0,0.1,0,0.2,0,0.3c0,0.1,0,0.3,0,0.4c0,0.2-0.1,0.4-0.2,0.7c-0.1,0.2-0.1,0.5-0.2,0.7
			c-0.1,0.2-0.1,0.3-0.1,0.5c0,0.5,0,0.9,0.1,1.3c0,0.3,0.1,0.5,0.2,0.6c0.1,0.3,0.3,0.6,0.4,0.9c0,0.2-0.4,0.4-1.3,0.8
			c-0.9,0.3-1.5,0.5-1.9,0.5c-0.2,0-0.4,0-0.6-0.1c-0.2-0.1-0.4-0.2-0.6-0.4c-0.1-0.2-0.2-0.3-0.3-0.4c-0.1-0.1-0.1-0.3-0.1-0.4
			c0-0.1,0-0.2,0.1-0.3c0.1-0.1,0.1-0.2,0.1-0.3c-0.2-0.3-0.3-0.6-0.5-0.8c0,0.1-0.1,0.1-0.1-0.1C97.8,26.3,97.8,26,97.8,25.6z"/>
		<path id="XMLID_130_" class="st0" d="M113.3,12.1l-0.5-1c0.1-0.2,0.2-0.4,0.3-0.6c0.1-0.2,0.2-0.4,0.3-0.6
			c0.1-0.1,0.3-0.3,0.6-0.3c0.3-0.1,0.7-0.1,1.1-0.1c0.2,0,0.4,0,0.8-0.1c0.4,0,0.6-0.1,0.8-0.1c0.2,0,0.4,0.1,0.7,0.2
			c0.3,0.1,0.5,0.2,0.6,0.2c0.1-0.1,0.3-0.1,0.5-0.3c0.2-0.1,0.4-0.3,0.7-0.5c0.3-0.2,0.5-0.3,0.7-0.4s0.5-0.2,0.8-0.2
			c0.3,0.1,0.6,0.1,0.8,0.2c0.1,0,0.2,0.1,0.3,0.1c0,0.1,0.1,0.1,0.1,0.2c0,0.1,0,0.2-0.1,0.3c-0.1,0.2-0.2,0.4-0.4,0.7
			c-0.2,0.3-0.4,0.6-0.5,0.8s-0.2,0.4-0.2,0.5c-0.3,0.2-0.5,0.4-0.7,0.6c-0.2,0.2-0.2,0.4-0.2,0.5c0,0.2,0.1,0.5,0.3,0.9
			c0.2,0.4,0.6,0.9,1,1.5c0.6,0.8,1.2,1.7,1.9,2.6c0.6,1,1.2,1.9,1.8,2.8c0.6,0.9,1.3,1.8,2,2.6c0.7,0.9,1.3,1.5,1.8,2
			c0.5,0.4,0.8,0.6,1,0.6c0.2,0,0.3-0.1,0.4-0.2c0.1-0.1,0.1-0.3,0.1-0.6c0-0.1,0-0.2,0.1-0.4s0.1-0.3,0.2-0.5
			c0.2-0.3,0.3-0.6,0.5-0.9c0.2-0.5,0.4-1,0.5-1.4c0.2-0.4,0.3-0.7,0.4-1c0.1-0.2,0.2-0.6,0.3-1.2s0.2-1.4,0.3-2.4
			c0-0.1,0-0.2,0.1-0.4c0.1-0.2,0.1-0.4,0.2-0.6c0.1-0.2,0.1-0.4,0.2-0.6c0-0.2,0.1-0.3,0.1-0.5c0-0.2,0-0.6-0.1-1
			c-0.1-0.5-0.1-0.8-0.1-1c0.3-0.6,0.6-1.3,0.8-1.9c0.2-0.5,0.4-1,0.6-1.3c0.2-0.4,0.4-0.6,0.5-0.8c0.3-0.4,0.7-0.7,1.1-1
			c0.4-0.3,0.9-0.5,1.5-0.7h0.2c0.2,0,0.3,0,0.4,0.1c0.1,0,0.1,0.1,0.1,0.2c-0.1,0.2-0.2,0.4-0.3,0.5c0.1,0.2,0.1,0.4,0.2,0.6
			c-0.1,0.3-0.1,0.5-0.2,0.6c0,0.1-0.1,0.3-0.1,0.5c0,0.2-0.1,0.5-0.1,0.8c0,0.1,0,0.4-0.1,0.8c-0.1,0.4-0.2,0.9-0.3,1.6
			c-0.1,1-0.3,1.9-0.4,2.9c-0.2,0.9-0.3,1.9-0.5,2.8c-0.2,1.1-0.4,2.2-0.7,3.1c-0.3,0.9-0.6,1.8-1,2.5c-0.1,0.4-0.3,0.9-0.5,1.5
			s-0.6,1.1-1,1.8l-0.9,0.8c-0.1,0-0.7,0.2-1.8,0.4c-1.2,0.2-1.8,0.3-1.9,0.3c-0.3,0-0.7-0.2-1.3-0.6c-0.6-0.4-1.3-1-2.1-1.8
			c-0.8-0.7-1.4-1.4-1.8-1.8c-0.4-0.5-0.7-0.8-0.8-1.1c0-0.1-0.1-0.2-0.2-0.4c-0.1-0.1-0.2-0.3-0.3-0.5c-0.4-0.4-0.9-1-1.5-1.7
			s-1.3-1.4-2-2.4c-0.1-0.2-0.3-0.4-0.5-0.7c-0.2-0.2-0.4-0.4-0.7-0.7l-0.2,0c-0.1,0.2-0.3,0.5-0.4,0.8c-0.1,0.3-0.3,0.7-0.5,1.1
			c-0.2,0.3-0.4,0.5-0.6,0.7c-0.3,0.6-0.6,1.2-1,1.9c-0.4,0.7-0.8,1.4-1.2,2.2c-0.1,0.3-0.2,0.5-0.3,0.8c-0.1,0.3-0.3,0.6-0.4,0.9
			l-0.5,0.5c-0.1,0.3-0.2,0.6-0.3,0.9c-0.1,0.2-0.3,0.5-0.5,0.8c-0.2,0.3-0.5,0.7-0.7,1.2c-0.1,0.2-0.2,0.4-0.4,0.5
			c-0.2,0.1-0.5,0.2-0.9,0.2c0,0-0.1,0.1-0.2,0.1s-0.3,0.1-0.6,0.1c-0.2,0-0.3,0-0.4-0.2c-0.1-0.1-0.1-0.3-0.1-0.6
			c0-0.1,0-0.4,0.1-0.7c0.1-0.3,0.2-0.7,0.4-1.2c0.2-0.5,0.4-0.9,0.5-1.2c0.1-0.3,0.2-0.5,0.2-0.6c0.1-0.2,0.2-0.6,0.3-1
			c0.1-0.4,0.2-0.9,0.3-1.4c0-0.1,0.1-0.3,0.2-0.5c0.1-0.2,0.2-0.4,0.3-0.7c0.1-0.2,0.3-0.8,0.6-1.7c0.3-0.9,0.7-2.2,1.1-3.8
			C112.3,15.3,112.8,13.7,113.3,12.1z"/>
		<path id="XMLID_128_" class="st0" d="M149.7,9.2c0.2-0.2,0.5-0.3,0.9-0.4c0.4-0.1,0.8-0.2,1.3-0.3c0.3-0.2,0.6-0.3,1-0.5
			c0.1-0.1,0.3-0.1,0.5-0.2s0.4-0.1,0.7-0.2c0.4-0.1,0.7-0.2,1-0.2c0.4,0,0.8,0.2,1,0.5c0.2,0.4,0.4,0.9,0.4,1.6
			c0,1.1-0.1,2.1-0.4,3c-0.3,0.9-0.7,1.7-1.2,2.4c-0.1,0.1-0.1,0.2-0.2,0.3c-0.1,0.1-0.1,0.2-0.2,0.3c-0.1,0.2-0.1,0.4-0.2,0.6
			c-0.1,0.2-0.2,0.5-0.4,0.9c0,0.1-0.1,0.2-0.1,0.4c0,0.1-0.1,0.3-0.1,0.5c0,0.1-0.2,0.4-0.3,0.7c-0.2,0.3-0.5,0.7-0.9,1.2l0.1,0.3
			c-0.2,0.3-0.4,0.6-0.6,1.1s-0.6,0.9-0.9,1.4c-0.1,0.3-0.3,0.6-0.5,1c-0.2,0.4-0.5,0.8-0.8,1.3c-0.1,0.3-0.1,0.5-0.2,0.7
			c0,0.1-0.2,0.3-0.4,0.7c-0.2,0.4-0.6,0.9-1,1.5c-0.1,0.2-0.4,0.3-0.7,0.5c-0.4,0.1-0.8,0.3-1.5,0.4c-0.5,0.1-1,0.2-1.5,0.3
			c-0.5,0.1-0.9,0.1-1.4,0.1c-0.6,0-1.2-0.1-1.7-0.2c-0.5-0.1-0.8-0.4-1-0.6c-0.8-1-1.3-1.8-1.7-2.3c-0.4-0.6-0.5-1-0.5-1.2
			c-0.1-0.1-0.2-0.3-0.4-0.5c-0.2-0.2-0.4-0.6-0.6-1c-0.2-0.4-0.3-0.7-0.4-0.9s-0.1-0.5-0.1-0.6c0-0.7,0.1-1.2,0.3-1.5
			c0.2-0.3,0.5-0.5,0.9-0.5c0.7,0,1.3,0.1,1.8,0.2s0.9,0.2,1.3,0.4c0.2,0.1,0.4,0.3,0.6,0.6c0.2,0.3,0.5,0.6,0.8,1
			c0.4,0.5,0.7,0.8,0.9,1.1c0.2,0.3,0.3,0.5,0.3,0.6c0,0.2-0.2,0.4-0.7,0.5c-0.5,0.1-0.7,0.3-0.7,0.4c0.2,0.2,0.3,0.4,0.5,0.5
			c0.1,0.2,0.3,0.4,0.4,0.5c0.2,0.3,0.4,0.5,0.7,0.6c0.2,0.1,0.4,0.2,0.7,0.2c0.3,0,0.7-0.2,1.1-0.7s0.8-1.2,1.3-2.1
			c0.4-0.7,0.7-1.3,1-1.9c0.3-0.6,0.5-1.1,0.6-1.5c0.1-0.2,0.3-0.4,0.4-0.7c0.2-0.3,0.3-0.6,0.5-1c0.1-0.1,0.1-0.2,0.1-0.3
			c0-0.1,0-0.3,0.1-0.4c0.2-0.5,0.3-1,0.5-1.6c0.2-0.5,0.4-1,0.5-1.6c0.2-0.6,0.3-1.2,0.4-1.7c0.1-0.5,0.1-1,0.1-1.4
			c0-0.4-0.5-0.6-1.4-0.7s-1.4-0.2-1.4-0.4c0-0.1,0.2-0.3,0.5-0.5S149.1,9.4,149.7,9.2z"/>
		<path id="XMLID_125_" class="st0" d="M155.7,23.1c-0.1-0.1-0.1-0.2-0.1-0.3c0-0.1,0-0.1,0-0.2c0-0.3,0.1-0.6,0.2-0.9
			c0.2-0.2,0.4-0.4,0.7-0.6c0.1,0,0.3-0.1,0.6-0.2c0.3-0.1,0.7-0.2,1.3-0.3c0.4-0.1,0.7-0.2,0.9-0.3c0.2-0.1,0.3-0.3,0.4-0.5
			c0.1-0.1,0.2-0.3,0.3-0.5s0.4-0.4,0.6-0.6c0.1-0.1,0.3-0.4,0.7-1.1c0.4-0.6,0.9-1.6,1.6-2.8c0.2-0.4,0.4-0.7,0.6-1
			c0.2-0.3,0.4-0.5,0.5-0.7c0.6-0.9,1.1-1.4,1.5-1.7c0.4-0.3,0.7-0.5,0.9-0.7v-0.1l-0.9-0.8l1.1-0.7l1.5-0.2c0.3,0,0.6-0.2,0.8-0.4
			c0.2-0.3,0.7-0.6,1.3-0.9c0.1,0,0.4-0.1,0.7-0.2c0.3-0.1,0.7-0.3,1.1-0.5c0.4-0.2,0.8-0.3,1-0.4s0.5-0.1,0.7-0.1
			c0.5,0,0.9,0.1,1.1,0.2c0.2,0.1,0.3,0.3,0.3,0.4c0,0.2-0.2,0.6-0.7,1c-0.4,0.4-0.7,0.8-0.7,1c0,0.1,0,0.2,0.1,0.3
			c0.1,0.1,0.2,0.1,0.3,0.1l3.5,1c0.2,0,0.4,0.2,0.5,0.5c0.2,0.3,0.3,0.7,0.4,1.2c0.1,0.4,0.2,0.7,0.3,1c0.1,0.3,0.1,0.5,0.1,0.6
			c-0.1,0.4-0.3,0.9-0.4,1.3c0.2,0.6,0.4,1.2,0.6,1.8c-0.1,0.6-0.2,1.2-0.4,1.8c0,0.1,0,0.1,0.1,0.2c0,0,0.1,0.1,0.2,0.1
			c0.3,0,0.6,0.1,0.7,0.1c0.2,0.1,0.2,0.2,0.2,0.3c0,0.2-0.1,0.3-0.2,0.4c-0.1,0.1-0.3,0.2-0.4,0.3c-0.3,0.1-0.4,0.2-0.6,0.2
			c-0.1,0.1-0.2,0.1-0.3,0.2l0.4,0.9l-0.5,2.2c0,0.2,0,0.4-0.1,0.7c-0.1,0.3-0.1,0.6-0.3,1c-0.2,0.3-0.3,0.5-0.4,0.7
			c-0.1,0.2-0.1,0.3-0.1,0.4c0.1,0.2,0.2,0.4,0.3,0.6c-0.1,0.3-0.2,0.6-0.4,0.8c-0.1,0.3-0.2,0.5-0.4,0.8c-0.2,0.4-0.5,0.6-0.8,0.8
			c-0.3,0.2-0.8,0.3-1.2,0.3c-0.3,0-0.4-0.1-0.6-0.2c-0.1-0.1-0.2-0.3-0.2-0.5c0-0.1,0-0.3,0.1-0.4c0.1-0.2,0.1-0.3,0.1-0.4
			c0-0.1,0-0.2-0.1-0.3c0-0.1-0.1-0.2-0.1-0.3c0-0.3,0.1-0.7,0.2-1.4s0.2-1.1,0.2-1.4c-0.1-0.2-0.2-0.4-0.3-0.5
			c0.1-0.2,0.1-0.4,0.1-0.6c0-0.2,0-0.4,0-0.6l0.4-0.4l-0.4-1.4l-0.2,0c-0.1,0-0.3,0-0.5,0.1c-0.2,0-0.5,0.1-0.8,0.2
			c-0.2,0-0.6,0.1-1.1,0.1c-0.5,0-1.1,0.1-2,0.1c-0.3,0.1-0.7,0.2-1,0.2c-0.4,0.1-1,0.1-1.7,0.3c-0.7,0.1-1.5,0.3-2.4,0.5
			c-0.5,0.1-1,0.2-1.4,0.3c-0.4,0.1-0.8,0.1-1.1,0.1c-0.2,0-0.4,0-0.6,0.1c-0.2,0.1-0.3,0.2-0.4,0.4c-0.1,0.2-0.2,0.4-0.4,0.7
			c-0.2,0.3-0.5,0.6-0.9,1.1c-0.1,0.1-0.2,0.3-0.3,0.5c-0.1,0.2-0.3,0.5-0.5,0.9c-0.1,0.1-0.3,0.3-0.4,0.5c-0.2,0.2-0.3,0.4-0.5,0.7
			c0,0.1,0,0.3-0.1,0.5c0,0.2-0.1,0.4-0.2,0.6c-0.1,0.1-0.2,0.3-0.4,0.5c-0.2,0.2-0.4,0.5-0.6,0.7c-0.2,0.2-0.4,0.3-0.7,0.4
			c-0.3,0.1-0.7,0.1-1.1,0.1c-0.3,0-0.6-0.1-0.8-0.2c-0.2-0.1-0.3-0.3-0.3-0.5c0-0.3,0.1-0.6,0.2-0.9c0.1-0.3,0.3-0.7,0.6-1.1
			c0.3-0.5,0.5-1,0.7-1.3c0.2-0.3,0.3-0.6,0.3-0.7c0.1-0.1,0.1-0.2,0.3-0.4c0.1-0.2,0.3-0.4,0.4-0.7c0.2-0.3,0.3-0.5,0.5-0.9L157,24
			l-0.9,0.1c-0.2,0-0.4-0.1-0.5-0.1c-0.1-0.1-0.1-0.2-0.1-0.3c0-0.1,0-0.2,0.1-0.2C155.5,23.3,155.6,23.2,155.7,23.1z M166.2,20.2
			c0.4,0,1.1-0.1,2-0.2c0.9-0.1,1.5-0.2,2-0.2c0.3,0,0.5,0.1,0.8,0.1c0.5-0.1,1-0.1,1.4-0.2c0.5-0.1,0.9-0.1,1.4-0.2
			c0.2,0,0.3-0.1,0.4-0.1c0.1-0.1,0.1-0.1,0.1-0.2c0-0.3-0.1-0.5-0.1-0.6c0-0.2,0-0.4,0.1-0.7c0-0.2,0.1-0.5,0.2-0.7l-0.3-0.7
			l0.1-0.6c-0.1-0.2-0.1-0.4-0.2-0.6c0-0.2-0.1-0.4,0-0.5c0,0-0.1-0.1-0.2-0.2c-0.1-0.1-0.2-0.2-0.3-0.3c-0.2-0.2-0.4-0.3-0.6-0.5
			c-0.2-0.2-0.4-0.3-0.6-0.5c-0.3-0.2-0.6-0.3-0.9-0.4c-0.3-0.1-0.6-0.1-1-0.1c-0.4,0-0.8,0.2-1.2,0.5c-0.4,0.3-0.8,0.8-1.1,1.5
			c-0.1,0.1-0.2,0.3-0.5,0.5c-0.3,0.3-0.6,0.6-1.1,1c-0.1,0.4-0.3,0.9-0.8,1.4c-0.4,0.6-1.1,1.3-1.9,2c-0.1,0.1-0.2,0.1-0.2,0.2
			c0,0.1,0,0.1,0,0.2c0,0.1,0,0.1,0.1,0.2c0.1,0,0.2,0.1,0.3,0.1c0.2,0,0.5,0,0.9,0C165.7,20.3,166,20.2,166.2,20.2z"/>
	</g>
	<g id="XMLID_7_">
		<path id="XMLID_122_" class="st0" d="M212.5,29.2c0,0.4-0.2,0.7-0.7,0.7c-0.8,0-4.1-0.2-9.8-0.5c-0.1,5.5-0.2,9.4-0.2,11.5
			c0,2.6,0.1,6.4,0.3,11.6c0.2,5.2,0.3,9,0.3,11.6c0,0.4-0.1,0.7-0.3,0.8c-0.1,0-0.4,0.1-0.9,0.2c-1.3,0.2-3.2,0.3-5.8,0.3
			c-2.8,0-4.8-0.1-5.9-0.3c-0.6-0.1-0.9-0.4-0.9-1c0-2.6,0.1-6.4,0.3-11.6c0.2-5.1,0.3-9,0.3-11.6c0-1.7-0.1-5.5-0.3-11.4
			c-4.4,0.4-7.8,0.7-10.4,0.7c-0.3,0-0.5-0.1-0.5-0.3c0-0.3,0.2-1.1,0.5-2.5c0.3-1.5,0.5-2.5,0.6-2.8c0.1-1,0.1-2,0.2-3.1
			c0.2-1.6,0.4-2.5,0.8-2.5c0,0,0.2,0,0.5,0c3.5,0.5,8.8,0.7,15.7,0.7c2,0,5.6-0.2,10.9-0.6c2.8-0.2,4.3-0.3,4.3-0.3
			c0.4,0,0.7,0,0.8,0.1c0.1,0.1,0.1,0.3,0.1,0.6c0,0.6,0,1.4-0.1,2.5c0,1.2-0.1,2-0.1,2.5c0,0.5,0.1,1.3,0.2,2.4
			C212.4,27.9,212.5,28.7,212.5,29.2z"/>
	</g>
</g>
</svg>
